<svg xmlns="http://www.w3.org/2000/svg" width="199" height="89.615" viewBox="0 0 199 89.615">
  <g id="Group_1" data-name="Group 1" transform="translate(-7 -372)">
    <g id="image_2020_10_09T16_55_27_658Z" transform="translate(93 429.615)">
      <path id="Path_8" data-name="Path 8" d="M96.2-84C93.4-79.1,91-74.5,91-73.9c0,.8,1.4,1,4.4.6l4.4-.6-1.4,4.6c-1.6,5.1-1.8,8.3-.6,8.3.9,0,12.2-18.7,12.2-20.2,0-.7-1.7-.9-4.6-.5-3.8.4-4.4.2-3.9-1.1,1.1-3,1.8-10.2.9-10.2C101.9-93,99.1-89,96.2-84Z" transform="translate(-91 93)" fill="#8b83b8"/>
    </g>
    <text id="SPACE_UP" data-name="SPACE UP" transform="translate(7 372)" fill="#8b83b8" font-size="40" font-family="Supermolot-Black, Supermolot" font-weight="800"><tspan x="0" y="41">SPACE UP</tspan></text>
    <text id="EST." transform="translate(53 438)" fill="#8b83b8" font-size="12" font-family="Supermolot-Black, Supermolot" font-weight="800"><tspan x="0" y="12">EST.</tspan></text>
    <text id="_2012" data-name="2012" transform="translate(125 438)" fill="#8b83b8" font-size="12" font-family="Supermolot-Black, Supermolot" font-weight="800"><tspan x="0" y="12">2012</tspan></text>
  </g>
</svg>
